<svg width="263" height="80" viewBox="0 0 263 80" fill="none" xmlns="http://www.w3.org/2000/svg">
<g clip-path="url(#clip0_2_45)">
<path d="M191.973 18.5925L196.118 44.2423L199.942 23.9279L209.849 29.5594L199.418 20.2649L198.82 18.3187L195.869 17.6472L191.973 18.5925Z" fill="url(#paint0_linear_2_45)"/>
<path d="M192.127 9.67328L180 15.7594L181.611 19.7491L198.593 18.7482L192.655 10.734L192.127 9.67328Z" fill="url(#paint1_linear_2_45)"/>
<path d="M192.516 10.7326L196.206 18.1629L192.06 19.1319L196.587 18.8886L199.225 23.1675L199.435 20.3802L197.417 16.9744L192.516 10.7326Z" fill="url(#paint2_linear_2_45)"/>
<path d="M196.118 44.2422L199.419 20.2649L209.851 29.5594L205.941 37.4861L196.118 44.2422Z" fill="url(#paint3_linear_2_45)"/>
<path d="M196.118 44.2422L201.683 45.6991L205.157 49.3413L193.977 55.6624L197.326 49.4984L196.118 44.2422Z" fill="url(#paint4_linear_2_45)"/>
<path d="M196.118 44.2423L219.32 58.1104L229.168 33.6771L209.849 29.5594L196.118 44.2423Z" fill="url(#paint5_linear_2_45)"/>
<path d="M218.556 76.9985L218.52 69.1802L201.549 76.9999L218.556 76.9985Z" fill="url(#paint6_linear_2_45)"/>
<path d="M230.953 76.9985L232.366 72.3276L235.089 69.6042L262.999 76.9999L230.953 76.9985Z" fill="url(#paint7_linear_2_45)"/>
<path d="M230.953 76.9984L235.088 69.6042L229.168 33.6771L221.895 47.0879L224.311 62.9885L230.953 76.9984Z" fill="url(#paint8_linear_2_45)"/>
<path d="M218.556 76.9984L212.482 48.2264L229.17 33.6771L231.915 51.2347L218.556 76.9984Z" fill="url(#paint9_linear_2_45)"/>
<path d="M212.482 48.2264L229.17 33.6771L231.915 51.2347L212.482 48.2264Z" fill="url(#paint10_linear_2_45)"/>
<path d="M234.638 70.4091L235.088 69.6042L262.999 76.9999L234.638 70.4091Z" fill="url(#paint11_linear_2_45)"/>
<path d="M180 15.7566L192.655 10.7326L192.127 9.67468L180 15.7566Z" fill="url(#paint12_linear_2_45)"/>
<path d="M193.191 4.00006L191.795 4.68958L191.923 9.84287L199.44 20.4011L199.581 11.8878L193.191 4.00006Z" fill="url(#paint13_linear_2_45)"/>
<path d="M193.191 4.00006L192.264 4.45881L191.795 4.68958L199.581 11.8878L193.191 4.00006Z" fill="#DD5124"/>
<path d="M229.17 33.6757L212.482 48.2264L213.105 51.4502L214.382 49.0244L231.915 51.2347L214.434 47.8553L229.17 33.6757Z" fill="url(#paint14_linear_2_45)"/>
</g>
<path d="M10.272 45.368H26.976V50.504H10.272V45.368ZM10.752 59.768H29.712V65H4.512V31.4H29.04V36.632H10.752V59.768ZM46.7059 65.336C44.2419 65.336 42.0179 64.792 40.0339 63.704C38.0819 62.584 36.5459 61.048 35.4259 59.096C34.3059 57.144 33.7459 54.84 33.7459 52.184C33.7459 49.528 34.3059 47.224 35.4259 45.272C36.5459 43.32 38.0819 41.8 40.0339 40.712C42.0179 39.624 44.2419 39.08 46.7059 39.08C48.8499 39.08 50.7699 39.56 52.4659 40.52C54.1619 41.448 55.5059 42.872 56.4979 44.792C57.4899 46.712 57.9859 49.176 57.9859 52.184C57.9859 55.16 57.5059 57.624 56.5459 59.576C55.5859 61.496 54.2579 62.936 52.5619 63.896C50.8659 64.856 48.9139 65.336 46.7059 65.336ZM47.4259 60.2C48.8659 60.2 50.1459 59.88 51.2659 59.24C52.4179 58.6 53.3299 57.672 54.0019 56.456C54.7059 55.24 55.0579 53.816 55.0579 52.184C55.0579 50.52 54.7059 49.096 54.0019 47.912C53.3299 46.696 52.4179 45.768 51.2659 45.128C50.1459 44.488 48.8659 44.168 47.4259 44.168C45.9859 44.168 44.6899 44.488 43.5379 45.128C42.4179 45.768 41.5059 46.696 40.8019 47.912C40.1299 49.096 39.7939 50.52 39.7939 52.184C39.7939 53.816 40.1299 55.24 40.8019 56.456C41.5059 57.672 42.4179 58.6 43.5379 59.24C44.6899 59.88 45.9859 60.2 47.4259 60.2ZM55.2019 65V58.952L55.4419 52.136L54.9619 45.32V29.384H60.9139V65H55.2019ZM79.659 65.336C77.483 65.336 75.563 64.936 73.899 64.136C72.235 63.304 70.939 62.056 70.011 60.392C69.083 58.696 68.619 56.568 68.619 54.008V39.368H74.619V53.192C74.619 55.496 75.131 57.224 76.155 58.376C77.211 59.496 78.699 60.056 80.619 60.056C82.027 60.056 83.243 59.768 84.267 59.192C85.323 58.616 86.139 57.752 86.715 56.6C87.323 55.448 87.627 54.024 87.627 52.328V39.368H93.627V65H87.915V58.088L88.923 60.2C88.059 61.864 86.795 63.144 85.131 64.04C83.467 64.904 81.643 65.336 79.659 65.336ZM101.483 65V39.368H107.195V46.424L106.523 44.36C107.291 42.632 108.491 41.32 110.123 40.424C111.787 39.528 113.851 39.08 116.315 39.08V44.792C116.059 44.728 115.819 44.696 115.595 44.696C115.371 44.664 115.147 44.648 114.923 44.648C112.651 44.648 110.843 45.32 109.499 46.664C108.155 47.976 107.483 49.944 107.483 52.568V65H101.483ZM132.69 65.336C130.066 65.336 127.73 64.776 125.682 63.656C123.634 62.504 122.018 60.936 120.834 58.952C119.65 56.968 119.058 54.712 119.058 52.184C119.058 49.624 119.65 47.368 120.834 45.416C122.018 43.432 123.634 41.88 125.682 40.76C127.73 39.64 130.066 39.08 132.69 39.08C135.346 39.08 137.698 39.64 139.746 40.76C141.826 41.88 143.442 43.416 144.594 45.368C145.778 47.32 146.37 49.592 146.37 52.184C146.37 54.712 145.778 56.968 144.594 58.952C143.442 60.936 141.826 62.504 139.746 63.656C137.698 64.776 135.346 65.336 132.69 65.336ZM132.69 60.2C134.162 60.2 135.474 59.88 136.626 59.24C137.778 58.6 138.674 57.672 139.314 56.456C139.986 55.24 140.322 53.816 140.322 52.184C140.322 50.52 139.986 49.096 139.314 47.912C138.674 46.696 137.778 45.768 136.626 45.128C135.474 44.488 134.178 44.168 132.738 44.168C131.266 44.168 129.954 44.488 128.802 45.128C127.682 45.768 126.786 46.696 126.114 47.912C125.442 49.096 125.106 50.52 125.106 52.184C125.106 53.816 125.442 55.24 126.114 56.456C126.786 57.672 127.682 58.6 128.802 59.24C129.954 59.88 131.25 60.2 132.69 60.2ZM163.628 65.336C161.004 65.336 158.668 64.776 156.62 63.656C154.572 62.504 152.956 60.936 151.772 58.952C150.588 56.968 149.996 54.712 149.996 52.184C149.996 49.624 150.588 47.368 151.772 45.416C152.956 43.432 154.572 41.88 156.62 40.76C158.668 39.64 161.004 39.08 163.628 39.08C166.284 39.08 168.636 39.64 170.684 40.76C172.764 41.88 174.38 43.416 175.532 45.368C176.716 47.32 177.308 49.592 177.308 52.184C177.308 54.712 176.716 56.968 175.532 58.952C174.38 60.936 172.764 62.504 170.684 63.656C168.636 64.776 166.284 65.336 163.628 65.336ZM163.628 60.2C165.1 60.2 166.412 59.88 167.564 59.24C168.716 58.6 169.612 57.672 170.252 56.456C170.924 55.24 171.26 53.816 171.26 52.184C171.26 50.52 170.924 49.096 170.252 47.912C169.612 46.696 168.716 45.768 167.564 45.128C166.412 44.488 165.116 44.168 163.676 44.168C162.204 44.168 160.892 44.488 159.74 45.128C158.62 45.768 157.724 46.696 157.052 47.912C156.38 49.096 156.044 50.52 156.044 52.184C156.044 53.816 156.38 55.24 157.052 56.456C157.724 57.672 158.62 58.6 159.74 59.24C160.892 59.88 162.188 60.2 163.628 60.2Z" fill="black" fill-opacity="0.75"/>
<defs>
<linearGradient id="paint0_linear_2_45" x1="192.285" y1="22.3557" x2="200.849" y2="24.0105" gradientUnits="userSpaceOnUse">
<stop stop-color="#E2643B"/>
<stop offset="1" stop-color="#D2451A"/>
</linearGradient>
<linearGradient id="paint1_linear_2_45" x1="186.805" y1="12.614" x2="186.781" y2="18.554" gradientUnits="userSpaceOnUse">
<stop stop-color="#EC592E"/>
<stop offset="1" stop-color="#E8502C"/>
</linearGradient>
<linearGradient id="paint2_linear_2_45" x1="197.03" y1="17.4387" x2="194.356" y2="18.995" gradientUnits="userSpaceOnUse">
<stop stop-color="#C7411A"/>
<stop offset="1" stop-color="#CA3F18"/>
</linearGradient>
<linearGradient id="paint3_linear_2_45" x1="196.293" y1="23.7013" x2="208.057" y2="33.0311" gradientUnits="userSpaceOnUse">
<stop stop-color="#E46E48"/>
<stop offset="1" stop-color="#DB4A1B"/>
</linearGradient>
<linearGradient id="paint4_linear_2_45" x1="196.489" y1="45.2084" x2="205.348" y2="53.6673" gradientUnits="userSpaceOnUse">
<stop stop-color="#D74A12"/>
<stop offset="1" stop-color="#D84A1D"/>
</linearGradient>
<linearGradient id="paint5_linear_2_45" x1="203.361" y1="36.2739" x2="226.665" y2="48.2803" gradientUnits="userSpaceOnUse">
<stop stop-color="#EA662E"/>
<stop offset="1" stop-color="#E65222"/>
</linearGradient>
<linearGradient id="paint6_linear_2_45" x1="201.042" y1="77.656" x2="217.816" y2="79.5286" gradientUnits="userSpaceOnUse">
<stop stop-color="#E1652A"/>
<stop offset="1" stop-color="#E24B1C"/>
</linearGradient>
<linearGradient id="paint7_linear_2_45" x1="238.777" y1="80.0888" x2="241.61" y2="70.6773" gradientUnits="userSpaceOnUse">
<stop stop-color="#F27437"/>
<stop offset="1" stop-color="#F57538"/>
</linearGradient>
<linearGradient id="paint8_linear_2_45" x1="230.869" y1="76.9178" x2="230.107" y2="34.2733" gradientUnits="userSpaceOnUse">
<stop stop-color="#E24F21"/>
<stop offset="1" stop-color="#E3602F"/>
</linearGradient>
<linearGradient id="paint9_linear_2_45" x1="212.306" y1="47.9414" x2="232.903" y2="63.9644" gradientUnits="userSpaceOnUse">
<stop stop-color="#F27336"/>
<stop offset="1" stop-color="#EF6326"/>
</linearGradient>
<linearGradient id="paint10_linear_2_45" x1="214.051" y1="47.245" x2="230.278" y2="41.0279" gradientUnits="userSpaceOnUse">
<stop stop-color="#F57538"/>
<stop offset="1" stop-color="#F06F36"/>
</linearGradient>
<linearGradient id="paint11_linear_2_45" x1="234.194" y1="69.4722" x2="262.605" y2="76.802" gradientUnits="userSpaceOnUse">
<stop stop-color="#FB924E"/>
<stop offset="1" stop-color="#FB924E" stop-opacity="0"/>
</linearGradient>
<linearGradient id="paint12_linear_2_45" x1="192.174" y1="10.2738" x2="179.947" y2="15.9462" gradientUnits="userSpaceOnUse">
<stop stop-color="#D24319"/>
<stop offset="1" stop-color="#D24319" stop-opacity="0"/>
</linearGradient>
<linearGradient id="paint13_linear_2_45" x1="191.943" y1="5.45416" x2="199.345" y2="20.0168" gradientUnits="userSpaceOnUse">
<stop stop-color="#DD5124"/>
<stop offset="1" stop-color="#EB6830"/>
</linearGradient>
<linearGradient id="paint14_linear_2_45" x1="212.494" y1="48.0513" x2="235.561" y2="48.9336" gradientUnits="userSpaceOnUse">
<stop stop-color="#FB924E"/>
<stop offset="1" stop-color="#FB924E" stop-opacity="0"/>
</linearGradient>
<clipPath id="clip0_2_45">
<rect width="83" height="73" fill="white" transform="translate(180 4)"/>
</clipPath>
</defs>
</svg>
